<?xml version="1.0" encoding="utf-8"?>
<!-- Generator: Adobe Illustrator 25.2.3, SVG Export Plug-In . SVG Version: 6.00 Build 0)  -->
<svg version="1.1" id="Layer_1" xmlns="http://www.w3.org/2000/svg" xmlns:xlink="http://www.w3.org/1999/xlink" x="0px" y="0px"
	 viewBox="0 0 1366 768" style="enable-background:new 0 0 1366 768;" xml:space="preserve">
<style type="text/css">
	.st0{fill:none;stroke:#000000;stroke-miterlimit:10;  stroke-dasharray:900;stroke-dashoffset:900;animation:line 3s infinite;}
	@keyframes line{
		to{stroke-dashoffset:0}
	}
	
</style>
<path class="st0" d="M86.6,193.64c-5.59-10-7.01-23.18-0.48-32.59c8.05,0.27,14.11,7.31,18.23,14.23s7.8,14.74,14.83,18.68
	c3.88-12.51,1.85-25.95,0.79-39c-1.51-18.64-0.86-37.85,5.68-55.36c0.69-1.86,1.51-3.77,3.04-5.03c5.24-4.31,12.65,2.21,15.16,8.52
	c9.35,23.49-0.4,50.25,3.46,75.24c16.82-17.13,17.55-44.07,28.17-65.59c0.83-1.68,1.88-3.46,3.66-4.04c1.8-0.59,3.78,0.3,5.22,1.54
	c7.97,6.82,3.47,19.57-0.53,29.27c-5.37,13.03-8.7,26.89-9.85,40.93c8.7-21.66,23.26-40.93,41.72-55.22
	c6.48,2.57,8.42,11.3,6.2,17.91c-2.23,6.61-7.34,11.74-11.72,17.17c-6.14,7.62-11.05,16.24-14.46,25.41
	c7.19-13.04,17.54-24.33,29.91-32.62c2.82-1.89,6.03-3.69,9.39-3.27c5.69,0.71,8.74,7.68,7.55,13.29c-1.2,5.6-5.25,10.09-8.98,14.44
	c-14.39,16.79-26.15,35.85-34.71,56.24c-4.06,9.67-8.13,20.49-17.4,25.39c-10.1,5.33-22.42,1.55-33.11-2.49
	c-9.69-3.66-19.49-7.57-27.57-14.07c-9.26-7.45-10.15-15.95-15.22-25.49C100.87,208.21,91.62,202.63,86.6,193.64z"/>
	<script>
		console.log(document.querySelector('.st0').getTotalLength())
	</script>
</svg>
