<?xml version="1.0" encoding="utf-8"?>
<!-- Generator: Adobe Illustrator 25.2.3, SVG Export Plug-In . SVG Version: 6.00 Build 0)  -->
<svg version="1.1" id="Layer_1" xmlns="http://www.w3.org/2000/svg" xmlns:xlink="http://www.w3.org/1999/xlink" x="0px" y="0px"
	 viewBox="0 0 900.3 664.1"  xml:space="preserve">
<style type="text/css">
	.st0{fill:#3668B2;}
	.st0.on{stroke-width:10; stroke:red;}
	.st1{fill:none;stroke:none;stroke-miterlimit:10;}
</style>
<g id="bird">
	<path class="st0" d="M212.7,97.4c-7.7,3.4-16,5.7-24.7,6.8c8.9-5.3,15.7-13.8,18.9-23.8c-8.3,4.9-17.5,8.5-27.3,10.5
		c-7.8-8.4-19.1-13.6-31.4-13.6c-23.8,0-43.1,19.3-43.1,43.1c0,3.4,0.4,6.7,1.1,9.8c-35.8-1.8-67.5-18.9-88.8-45
		c-3.7,6.4-5.8,13.8-5.8,21.6c0,14.9,7.6,28.1,19.2,35.8c-7-0.2-13.7-2.2-19.5-5.4c0,0.2,0,0.3,0,0.6c0,20.9,14.9,38.3,34.5,42.2
		c-3.6,1-7.4,1.5-11.3,1.5c-2.8,0-5.5-0.3-8.1-0.8c5.5,17.1,21.4,29.5,40.2,29.9C51.7,222.1,33.2,229,13,229
		c-3.5,0-6.9-0.2-10.3-0.6c19.1,12.2,41.7,19.4,66,19.4c79.2,0,122.5-65.6,122.5-122.5c0-1.9,0-3.7-0.1-5.6
		C199.6,113.6,206.9,106.1,212.7,97.4L212.7,97.4z"/>
	<circle id="white" cx="147.6" cy="100.9" r="9.3"/>
	<circle id="black" cx="148.3" cy="96.8" r="4.5"/>
</g>
<path id="path_2_" class="st1" d="M37.8,234.9c0,0,26.7-86.3,127.3-90.3S348.7,241.3,425,247c239,18,402-112.8,402-112.8"/>
<animateMotion xlink:href="#bird"  dur="2s" fill="remove" repeatCount="indefinite" restart="always" rotate="auto">
	<!--   fill='freeze'  애니메이션의 최종 상태를 정의한다.	freeze ( 마지막 애니메이션 프레임 상태 유지 ) | remove ( 첫 번째 애니메이션 프레임의 상태 유지 ) -->
	<!--  rotate="각도 | auto | auto-reverse" -->
	<mpath xlink:href="#path_2_"></mpath>
</animateMotion>
<script>
	document.addEventListener('mouseover',()=>{
		document.querySelector('.st0').style.fill="purple";
		document.querySelector('.st0').classList.add('on');
	})
	document.addEventListener('mouseout',()=>{
		document.querySelector('.st0').style.fill="#3668B2";
				document.querySelector('.st0').classList.remove('on');

	})
</script>
</svg>
