<?xml version="1.0" encoding="utf-8"?>
<!-- <?xml-stylesheet type="text/css" href="style1.css"?> -->
<svg version="1.1" id="Layer_1" xmlns:serif="http://www.serif.com/"
	 xmlns="http://www.w3.org/2000/svg" xmlns:xlink="http://www.w3.org/1999/xlink" x="0px" y="0px" viewBox="0 0 612 792"
	 style="enable-background:new 0 0 612 792;" xml:space="preserve">
<style type="text/css">
	.st0{fill:#2AA9E0;}
	.st1{fill:#FFFFFF;}
	.st2{fill:#231F20;}
</style>
<g transform="matrix(1,0,0,1,-282.321,-396.307)">
	<path id="path1" class="st0" d="M892.6,601.9c-22.5,10-46.6,16.7-71.9,19.7c25.8-15.5,45.7-40,55-69.3
		c-24.2,14.3-51,24.8-79.5,30.4c-22.8-24.3-55.4-39.5-91.4-39.5c-69.1,0-125.2,56.1-125.2,125.2c0,9.8,1.1,19.4,3.2,28.5
		c-104.1-5.2-196.3-55.1-258.1-130.8c-10.8,18.5-17,40-17,62.9c0,43.4,22.1,81.8,55.7,104.2c-20.5-0.7-39.8-6.3-56.7-15.7
		c0,0.5,0,1,0,1.6c0,60.7,43.2,111.3,100.4,122.8c-10.5,2.9-21.6,4.4-33,4.4c-8.1,0-15.9-0.8-23.6-2.2c15.9,49.7,62.2,85.9,117,86.9
		c-42.9,33.6-96.8,53.6-155.5,53.6c-10.1,0-20.1-0.6-29.9-1.8c55.4,35.5,121.2,56.3,191.9,56.3c230.3,0,356.2-190.8,356.2-356.2
		c0-5.4-0.1-10.8-0.4-16.2C854.5,649.1,875.8,627.1,892.6,601.9L892.6,601.9z"/>
</g>
<circle id="white" class="st1" cx="417.5" cy="210" r="27.1"/>
<circle id="black" class="st2" cx="419.5" cy="197.9" r="13.1"/>

</svg>
