
<svg version="1.1"  xmlns="http://www.w3.org/2000/svg" width="100%" height="100%" viewBox="0 0 612 792" xml:space="preserve"  x="0px" y="0px" >
<defs>
    /*radialGradient */
    <linearGradient id="bird-color">
      <stop offset="0%" stop-color="yellow"/>
      <stop offset="50%" stop-color="hotpink"/>
      <stop offset="100%" stop-color="deepskyblue"/>
    </linearGradient>
  <style>
    path{fill:red;}
    .white{position:relative;}
    .black{position:absolute;}
  
    @media all and (min-width:700px) and (max-width:800px){
      .black{animation:rotate 1s infinite; transform-origin:419.5px 197.9px;}
       @keyframes rotate{
      0%{transform:scaleY(0px)}
      30%{transform:scaleY(20%)}
      100%{transform:scaleY(100%)}
      }  
      .bird{fill:url('#bird-color');}
    }  
  </style>

</defs>

  <path class="bird" d="M892.6 601.9c-22.5 10-46.6 16.7-71.9 19.7 25.8-15.5 45.7-40 55-69.3-24.2 14.3-51 24.8-79.5 30.4-22.8-24.3-55.4-39.5-91.4-39.5-69.1 0-125.2 56.1-125.2 125.2 0 9.8 1.1 19.4 3.2 28.5-104.1-5.2-196.3-55.1-258.1-130.8-10.8 18.5-17 40-17 62.9 0 43.4 22.1 81.8 55.7 104.2-20.5-.7-39.8-6.3-56.7-15.7v1.6c0 60.7 43.2 111.3 100.4 122.8-10.5 2.9-21.6 4.4-33 4.4-8.1 0-15.9-.8-23.6-2.2 15.9 49.7 62.2 85.9 117 86.9-42.9 33.6-96.8 53.6-155.5 53.6-10.1 0-20.1-.6-29.9-1.8 55.4 35.5 121.2 56.3 191.9 56.3 230.3 0 356.2-190.8 356.2-356.2 0-5.4-.1-10.8-.4-16.2 24.7-17.6 46-39.6 62.8-64.8z" transform="translate(-282.321 -396.307)" />
  <circle class="white" cx="417.5" cy="210" r="27.1" style="fill:#fff"/>
  <circle class="black" cx="419.5" cy="197.9" r="13.1" />
  
</svg>